<svg width="27" height="27" viewBox="0 0 27 27" fill="none" xmlns="http://www.w3.org/2000/svg">
<rect width="27" height="27" rx="13.5" fill="white"/>
<path d="M18.1875 16.8125C18.5938 17.1875 18.5938 17.8438 18.1875 18.2188C18 18.4062 17.75 18.5 17.5 18.5C17.2188 18.5 16.9688 18.4062 16.7812 18.2188L13.5 14.9375L10.1875 18.2188C10 18.4062 9.75 18.5 9.5 18.5C9.21875 18.5 8.96875 18.4062 8.78125 18.2188C8.375 17.8438 8.375 17.1875 8.78125 16.8125L12.0625 13.5L8.78125 10.2188C8.375 9.84375 8.375 9.1875 8.78125 8.8125C9.15625 8.40625 9.8125 8.40625 10.1875 8.8125L13.5 12.0938L16.7812 8.8125C17.1562 8.40625 17.8125 8.40625 18.1875 8.8125C18.5938 9.1875 18.5938 9.84375 18.1875 10.2188L14.9062 13.5312L18.1875 16.8125Z" fill="black"/>
</svg>
