<svg width="27" height="27" viewBox="0 0 27 27" fill="none" xmlns="http://www.w3.org/2000/svg">
<rect width="27" height="27" rx="13.5" fill="white"/>
<path d="M6.5 8.5C6.5 7.96875 6.9375 7.5 7.5 7.5H19.5C20.0312 7.5 20.5 7.96875 20.5 8.5C20.5 9.0625 20.0312 9.5 19.5 9.5H7.5C6.9375 9.5 6.5 9.0625 6.5 8.5ZM6.5 13.5C6.5 12.9688 6.9375 12.5 7.5 12.5H19.5C20.0312 12.5 20.5 12.9688 20.5 13.5C20.5 14.0625 20.0312 14.5 19.5 14.5H7.5C6.9375 14.5 6.5 14.0625 6.5 13.5ZM19.5 19.5H7.5C6.9375 19.5 6.5 19.0625 6.5 18.5C6.5 17.9688 6.9375 17.5 7.5 17.5H19.5C20.0312 17.5 20.5 17.9688 20.5 18.5C20.5 19.0625 20.0312 19.5 19.5 19.5Z" fill="black"/>
</svg>
